<svg xmlns="http://www.w3.org/2000/svg" xmlns:xlink="http://www.w3.org/1999/xlink" width="270" height="70"><defs><path id="a" d="M.385.143h25.583v11.222H.385z"/><path id="c" d="M.27.417h5.205v5.915H.27z"/><path id="e" d="M0 69.857h268.714V.493H0z"/></defs><g fill="none" fill-rule="evenodd"><path fill="#FFF" d="M166.046 56.418l3.702-17.8c.319-.079.936-.157 1.852-.238a33.7 33.7 0 012.927-.12c1.314 0 2.479.04 3.494.12 1.016.08 1.742.16 2.18.238l-9.676 30.76c-.678.199-1.413.33-2.21.39a32.88 32.88 0 01-2.389.089c-.797 0-1.604-.03-2.419-.09-.817-.06-1.663-.19-2.538-.389l-4.36-16.723a452.173 452.173 0 00-2.3 8.421 668.787 668.787 0 01-2.24 8.302 15.67 15.67 0 01-2.478.39c-.817.058-1.623.089-2.42.089-.797 0-1.593-.03-2.389-.09-.797-.06-1.533-.19-2.21-.389l-9.377-30.76c.438-.079 1.204-.157 2.3-.238 1.094-.08 2.299-.12 3.613-.12 1.035 0 2.04.04 3.016.12.976.08 1.623.16 1.942.238l3.882 18.278 4.3-18.278a10.736 10.736 0 012.24-.388 32.974 32.974 0 014.839 0c.815.06 1.642.19 2.478.388l4.24 17.8zm27.324-18.874c3.225 0 5.982.38 8.272 1.135 2.29.756 4.17 1.82 5.644 3.195 1.473 1.373 2.548 3.036 3.226 4.987.676 1.952 1.015 4.122 1.015 6.51 0 2.51-.35 4.779-1.045 6.81-.697 2.03-1.792 3.763-3.285 5.196-1.493 1.433-3.425 2.538-5.794 3.315-2.37.776-5.226 1.165-8.57 1.165-1.952 0-3.695-.07-5.227-.21a96.321 96.321 0 01-4.808-.566V38.38c1.672-.199 3.444-.388 5.315-.567 1.872-.18 3.624-.27 5.257-.27zm-.478 23.77c.159 0 .367.022.628.062.257.04.646.059 1.164.059 2.23 0 3.892-.628 4.987-1.882 1.095-1.254 1.643-3.314 1.643-6.182 0-2.548-.538-4.41-1.613-5.584-1.075-1.174-2.608-1.762-4.599-1.762-.478 0-.916.021-1.314.06-.399.04-.697.08-.896.12v15.11zM16.784 49.788c1.194.319 2.279.707 3.255 1.164a8.512 8.512 0 012.508 1.763c.697.716 1.244 1.593 1.643 2.627.398 1.036.597 2.292.597 3.763a9.859 9.859 0 01-.926 4.242c-.617 1.313-1.533 2.448-2.747 3.403-1.215.957-2.708 1.714-4.48 2.27-1.772.557-3.813.837-6.122.837-1.911 0-3.683-.14-5.316-.419-1.633-.28-3.365-.755-5.196-1.434.199-2.707.935-5.453 2.21-8.242a18.496 18.496 0 004 1.344c1.395.299 2.789.449 4.183.449.477 0 .975-.021 1.493-.06.517-.04.975-.13 1.374-.27.397-.138.725-.329.985-.566.259-.24.388-.558.388-.956 0-.518-.26-.906-.776-1.165a10.865 10.865 0 00-1.792-.687l-4.061-1.134c-2.112-.598-3.863-1.613-5.257-3.046-1.394-1.435-2.09-3.385-2.09-5.854 0-1.553.318-2.966.956-4.242A9.395 9.395 0 014.3 40.32c1.155-.895 2.518-1.582 4.092-2.06 1.573-.477 3.315-.716 5.226-.716 1.513 0 3.166.16 4.957.477 1.793.32 3.563.777 5.316 1.374-.08 1.275-.339 2.638-.777 4.091-.438 1.454-.936 2.739-1.492 3.854-1.075-.439-2.37-.838-3.883-1.196-1.514-.358-2.907-.537-4.181-.537-1.872 0-2.807.517-2.807 1.553 0 .439.218.777.657 1.015.438.239.935.439 1.493.598l3.883 1.015zM47.81 58.03h-8.84v11.35c-1.035.158-1.97.277-2.806.358-.837.079-1.593.119-2.27.119-.678 0-1.434-.04-2.27-.119a45.65 45.65 0 01-2.747-.358V38.559a20.526 20.526 0 012.597-.419 27.357 27.357 0 012.479-.118c.756 0 1.573.04 2.449.118.876.081 1.733.22 2.568.419v10.513h8.84V38.559a20.556 20.556 0 012.599-.419c.855-.078 1.68-.118 2.478-.118.756 0 1.573.04 2.45.118.875.081 1.731.22 2.567.419v30.82c-1.035.16-1.97.278-2.807.359-.836.079-1.593.119-2.27.119s-1.433-.04-2.269-.119a45.65 45.65 0 01-2.747-.358V58.03zm25.771 11.35c-1.035.158-1.97.277-2.806.358-.837.08-1.594.119-2.27.119-.678 0-1.434-.04-2.27-.119a45.65 45.65 0 01-2.747-.358V38.56c.875-.2 1.741-.338 2.597-.419.857-.079 1.682-.12 2.479-.12.756 0 1.573.041 2.449.12a18.36 18.36 0 012.568.418v30.82zm6.689-30.7a72.574 72.574 0 015.645-.628 77.291 77.291 0 015.585-.209c1.83 0 3.622.17 5.375.507 1.752.34 3.324.956 4.719 1.851 1.393.897 2.518 2.132 3.374 3.704.856 1.574 1.284 3.614 1.284 6.123 0 2.269-.388 4.18-1.164 5.733-.777 1.554-1.803 2.808-3.076 3.763a12.272 12.272 0 01-4.33 2.061 19.575 19.575 0 01-4.929.627c-.676 0-1.253-.02-1.731-.06-.479-.039-.777-.079-.896-.12v7.347a24.395 24.395 0 01-2.777.388c-.817.06-1.544.09-2.18.09-.678 0-1.405-.03-2.181-.09s-1.683-.19-2.717-.388v-30.7zm9.856 15.826c.199.04.447.07.746.09.298.02.547.03.747.03 1.393 0 2.538-.347 3.434-1.045.896-.696 1.344-1.882 1.344-3.553 0-1.435-.448-2.54-1.344-3.316-.896-.777-2-1.164-3.315-1.164h-.686c-.3 0-.608.02-.926.06v8.898zm31.012-1.043c3.213-4.028 6.82-12.339 6.82-14.882h.009c-.826-.194-2.167-.33-3.03-.411a27.064 27.064 0 00-2.45-.119c-.796 0-1.623.04-2.479.119a20.55 20.55 0 00-2.597.418v.13c-2.033 5.738-4.944 10.393-9.004 14.77v7.89h.03v2.108h13.38V69.3c.996.158 1.912.277 2.749.358a24.29 24.29 0 002.27.118c.676 0 1.432-.04 2.27-.118.835-.081 1.77-.2 2.806-.358v-.317h.026v-15.52h-10.8z"/><g transform="translate(197.676 .35)"><mask id="b" fill="#fff"><use xlink:href="#a"/></mask><path fill="#B5B8ED" d="M25.968 11.365V.143l-3.301 1.1c-1.982.66-4.095 1.473-6.541 2.414l-1.995.766C7.807 6.838 3.2 8.953.385 11.365h25.583z" mask="url(#b)"/></g><path fill="#FFF" d="M223.303 42.266l3.26-1.027c2.44-.767 6.124-1.969 9.812-3.328 6.128-2.26 10.63-4.261 13.438-6.566h-26.51v10.921zm29.857-18.503c-.991-7.815-11.18-8.453-16.653-8.796-1.316-.084-41.083.092-41.083.092-.55 1.237-.745 2.579-.554 4.088.992 7.815 11.183 8.453 16.655 8.796 2.888.182 41.041.058 41.041.058.59-1.269.795-2.661.594-4.238m-28.723 32.486h1.791c1.563 0 1.555-2.366 0-2.366h-1.79v2.366zm0 .87v1.816h-.946v-5.914c.904 0 1.833-.008 2.737-.008 2.822 0 2.83 4.089 0 4.106h-1.79zm7.757 1.073c1.47 0 2.086-1.04 2.086-2.171 0-1.09-.625-2.222-2.07-2.248-1.368 0-2.103.955-2.103 2.248.017 1.048.625 2.17 2.087 2.17m3.024-2.187c0 1.596-.971 3.058-3.024 3.058s-3.025-1.496-3.025-3.05c0-1.8 1.259-3.1 3.041-3.1 2.02.008 3.008 1.495 3.008 3.092m7.233 2.94h-.836l-.786-2.087-.65-1.985-.651 1.994-.777 2.078h-.828l-2.146-5.923h1.056l1.504 4.555 1.529-4.555h.609l1.562 4.555 1.47-4.555h1.057zm7.58-.009h-4.368v-5.914h4.343v.921h-3.397v1.597h3.262v.879h-3.262v1.588h3.422zm2.359-5.052v2.146h1.799c.786 0 1.132-.499 1.132-1.056 0-.533-.346-1.09-1.124-1.09h-1.808zm4.156 5.052h-1.107l-1.8-2.044h-1.25v2.044h-.946v-5.922c.92 0 1.833.008 2.754.008 1.37 0 2.087.938 2.087 1.935 0 .845-.44 1.673-1.605 1.842l1.766 1.968.101.17zm5.551 0h-4.368v-5.914h4.343v.921h-3.396v1.597h3.261v.879h-3.261v1.588h3.421z"/><g transform="translate(263.24 52.604)"><mask id="d" fill="#fff"><use xlink:href="#c"/></mask><path fill="#FFF" d="M1.208 5.419h1.3c1.445 0 2.054-1.064 2.028-2.103-.025-.998-.633-1.994-2.028-1.994h-1.3v4.097zm1.3-5.002c2.02 0 2.94 1.446 2.966 2.907.034 1.495-.896 3.008-2.966 3.008H.27V.417h2.238z" mask="url(#d)"/></g><path fill="#FFF" d="M224.429 68.197h1.774c.524 0 1.25-.17 1.25-.82 0-.634-.701-.92-1.241-.92h-1.783v1.74zm0-2.586h1.783c.709 0 1.064-.279 1.064-.743 0-.414-.363-.853-1.073-.853h-1.774v1.596zm1.774-2.45c1.124 0 2.01.516 2.01 1.69 0 .498-.261.946-.819 1.174.71.211 1.005.913 1.005 1.36 0 1.294-1.03 1.69-2.196 1.69h-2.712v-5.914h2.712zm5.382 2.611l1.682-2.611h1.14v.043l-2.348 3.447v2.424h-.947v-2.424l-2.281-3.447v-.043h1.124zm5.468-2.611h4.317v.431l-3.253 4.579h3.253v.904h-4.588v-.532l3.194-4.511h-2.923z"/><mask id="f" fill="#fff"><use xlink:href="#e"/></mask><path fill="#FFF" d="M242.647 69.075h.937v-5.914h-.937zm7.773-4.528l-2.011 2.796h-.203l-1.985-2.796v4.537h-.947V63.17h1.099l1.952 2.771 1.942-2.771h1.099v5.914h-.946z" mask="url(#f)"/></g></svg>