<?xml version="1.0" encoding="UTF-8"?> <svg xmlns="http://www.w3.org/2000/svg" width="64" height="64" viewBox="0 0 64 64" fill="none"><path d="M24.6666 41.3148H12.8757C12.3505 41.3148 11.9249 41.7404 11.9249 42.2656C11.9249 42.7907 12.3505 43.2167 12.8757 43.2167H24.6666C25.1918 43.2167 25.6178 42.7907 25.6178 42.2656C25.6178 41.7404 25.1918 41.3148 24.6666 41.3148Z" fill="#6E3DF7"></path><path d="M24.6666 45.2708H12.8757C12.3505 45.2708 11.9249 45.6968 11.9249 46.2219C11.9249 46.7471 12.3505 47.1727 12.8757 47.1727H24.6666C25.1918 47.1727 25.6178 46.7471 25.6178 46.2219C25.6178 45.6968 25.1918 45.2708 24.6666 45.2708Z" fill="#6E3DF7"></path><path d="M54.0191 29.8035H52.6577C51.5367 29.7435 50.6359 28.7827 49.5747 27.6616C49.4548 27.5416 49.3545 27.4213 49.2346 27.3013V14.5092C49.2329 13.676 48.9014 12.8777 48.3123 12.2885C47.7231 11.6993 46.9248 11.3679 46.0916 11.3662H11.098C10.2649 11.3679 9.46654 11.6993 8.87738 12.2885C8.28821 12.8777 7.95679 13.676 7.95508 14.5092V49.5225C7.95709 50.3533 8.28955 51.1496 8.8791 51.7354C9.46861 52.3212 10.2669 52.6487 11.098 52.6453H46.0916C46.9228 52.6486 47.721 52.3212 48.3106 51.7354C48.9001 51.1496 49.2325 50.3533 49.2346 49.5225V42.8961C49.628 42.7074 50.0594 42.6116 50.4957 42.6159H54.019C54.5445 42.6149 55.0478 42.4055 55.4192 42.0341C55.7908 41.6628 56 41.1591 56.001 40.634V31.7858C56 31.2607 55.7908 30.757 55.4192 30.3856C55.0478 30.0143 54.5446 29.8045 54.0191 29.8035ZM24.3706 13.2681H32.7585L32.7588 22.1763L32.3985 22.2362L30.877 22.4967L26.7532 23.1572L26.3128 23.2373L24.371 23.5577L24.3706 13.2681ZM47.3321 49.5228C47.3298 49.8493 47.1974 50.1613 46.9645 50.3905C46.7319 50.6194 46.4175 50.7464 46.0911 50.7437H11.0975C10.7711 50.7464 10.4567 50.6194 10.2241 50.3905C9.99117 50.1613 9.85912 49.8492 9.85644 49.5228V14.5095C9.85778 14.1808 9.98915 13.8661 10.2217 13.6338C10.454 13.4012 10.7687 13.2699 11.0975 13.2685H22.4483V24.6991C22.4516 24.9833 22.5753 25.2524 22.7884 25.4398C23.0042 25.6231 23.2921 25.6968 23.5693 25.6402L33.8588 23.9387C34.3263 23.869 34.6739 23.4701 34.6796 22.9976V13.2683H46.0904C46.4192 13.2697 46.7339 13.401 46.9665 13.6336C47.1987 13.8659 47.3301 14.1806 47.3314 14.5093V25.6199C47.2916 25.5998 47.2513 25.5599 47.2115 25.5398L45.3296 24.7392C45.0136 24.6742 44.6915 24.6406 44.3688 24.639H39.0639C38.2739 24.5847 37.5135 24.9496 37.0617 25.5998C36.5955 26.3656 36.5503 27.3157 36.9417 28.1224C37.0212 28.3449 37.1217 28.5594 37.242 28.7628H30.1354C29.4008 28.7635 28.6963 29.054 28.1751 29.5715C27.6539 30.089 27.3584 30.7911 27.3527 31.5253C27.3537 31.8327 27.4077 32.1376 27.5126 32.4262H27.2525C26.2618 32.4262 25.3465 32.9547 24.8512 33.8127C24.3559 34.6706 24.3559 35.7273 24.8512 36.5852C25.3466 37.4432 26.2618 37.9717 27.2525 37.9717H27.5129C27.408 38.2603 27.3537 38.5652 27.3527 38.8726C27.3544 39.5841 27.6295 40.2678 28.1215 40.7819C28.6135 41.2963 29.2841 41.6016 29.9949 41.6351C29.8934 41.9247 29.8394 42.229 29.8351 42.536C29.8334 43.2743 30.126 43.9831 30.6481 44.5052C31.1703 45.0274 31.8791 45.32 32.6174 45.3186H44.229C44.601 45.3263 44.972 45.2791 45.33 45.1786L47.2118 44.2576C47.2517 44.2375 47.2919 44.1976 47.3318 44.1775L47.3321 49.5228ZM54.1187 40.6344C54.1234 40.695 54.0792 40.7483 54.0185 40.7544H50.4952C50.07 40.7534 49.646 40.8073 49.2341 40.9146C48.5417 41.0925 47.8939 41.4129 47.3322 41.8557C47.0919 42.0159 46.8717 42.1761 46.6716 42.3363C46.0154 42.9834 45.1488 43.3735 44.2295 43.4372H32.6178C32.1259 43.4372 31.727 43.0384 31.727 42.5464C31.727 42.0544 32.1258 41.6552 32.6178 41.6552H35.7209C36.2407 41.6552 36.662 41.2343 36.662 40.7145C36.662 40.1946 36.2407 39.7737 35.7209 39.7737H30.1358C29.6381 39.7737 29.2349 39.3702 29.2349 38.8729C29.2349 38.3752 29.6381 37.972 30.1358 37.972H35.7213C36.2354 37.972 36.652 37.5551 36.652 37.0409C36.652 36.5268 36.2351 36.1099 35.7209 36.1099H27.253C26.7647 36.0961 26.3753 35.6977 26.3722 35.209C26.3675 34.7177 26.7613 34.3149 27.253 34.3082H35.7209C36.2407 34.3082 36.662 33.8869 36.662 33.3674C36.662 32.8476 36.2407 32.4263 35.7209 32.4263H30.1358C29.6435 32.4263 29.2446 32.0275 29.2446 31.5355C29.2446 31.0435 29.6434 30.6447 30.1358 30.6447H44.009C44.5284 30.6447 44.9497 30.2234 44.9497 29.7039C44.9497 29.1841 44.5285 28.7628 44.009 28.7628H40.6056C40.1894 28.7628 39.7825 28.6368 39.4397 28.4009C39.0965 28.1649 38.8327 27.8305 38.6839 27.4417C38.5539 27.1954 38.5251 26.9081 38.6038 26.6407C38.7422 26.5402 38.9145 26.4969 39.0841 26.5207H44.3491C45.508 26.6206 46.5802 27.1746 47.3319 28.0624C47.6322 28.3426 47.9124 28.663 48.2127 28.9632C48.5528 29.3235 48.8732 29.664 49.2335 30.0042C50.1039 30.9751 51.3167 31.5707 52.6171 31.6658C52.6171 31.6708 52.6191 31.6762 52.6231 31.6799C52.6268 31.6836 52.6318 31.6856 52.6372 31.6856H54.0187C54.0458 31.6839 54.072 31.694 54.0911 31.7131C54.1105 31.7322 54.1202 31.7586 54.1185 31.7858L54.1187 40.6344Z" fill="#6E3DF7"></path><path d="M24.6666 41.3148H12.8757C12.3505 41.3148 11.9249 41.7404 11.9249 42.2656C11.9249 42.7907 12.3505 43.2167 12.8757 43.2167H24.6666C25.1918 43.2167 25.6178 42.7907 25.6178 42.2656C25.6178 41.7404 25.1918 41.3148 24.6666 41.3148Z" stroke="#6E3DF7" stroke-width="0.4"></path><path d="M24.6666 45.2708H12.8757C12.3505 45.2708 11.9249 45.6968 11.9249 46.2219C11.9249 46.7471 12.3505 47.1727 12.8757 47.1727H24.6666C25.1918 47.1727 25.6178 46.7471 25.6178 46.2219C25.6178 45.6968 25.1918 45.2708 24.6666 45.2708Z" stroke="#6E3DF7" stroke-width="0.4"></path><path d="M54.0191 29.8035H52.6577C51.5367 29.7435 50.6359 28.7827 49.5747 27.6616C49.4548 27.5416 49.3545 27.4213 49.2346 27.3013V14.5092C49.2329 13.676 48.9014 12.8777 48.3123 12.2885C47.7231 11.6993 46.9248 11.3679 46.0916 11.3662H11.098C10.2649 11.3679 9.46654 11.6993 8.87738 12.2885C8.28821 12.8777 7.95679 13.676 7.95508 14.5092V49.5225C7.95709 50.3533 8.28955 51.1496 8.8791 51.7354C9.46861 52.3212 10.2669 52.6487 11.098 52.6453H46.0916C46.9228 52.6486 47.721 52.3212 48.3106 51.7354C48.9001 51.1496 49.2325 50.3533 49.2346 49.5225V42.8961C49.628 42.7074 50.0594 42.6116 50.4957 42.6159H54.019C54.5445 42.6149 55.0478 42.4055 55.4192 42.0341C55.7908 41.6628 56 41.1591 56.001 40.634V31.7858C56 31.2607 55.7908 30.757 55.4192 30.3856C55.0478 30.0143 54.5446 29.8045 54.0191 29.8035ZM24.3706 13.2681H32.7585L32.7588 22.1763L32.3985 22.2362L30.877 22.4967L26.7532 23.1572L26.3128 23.2373L24.371 23.5577L24.3706 13.2681ZM47.3321 49.5228C47.3298 49.8493 47.1974 50.1613 46.9645 50.3905C46.7319 50.6194 46.4175 50.7464 46.0911 50.7437H11.0975C10.7711 50.7464 10.4567 50.6194 10.2241 50.3905C9.99117 50.1613 9.85912 49.8492 9.85644 49.5228V14.5095C9.85778 14.1808 9.98915 13.8661 10.2217 13.6338C10.454 13.4012 10.7687 13.2699 11.0975 13.2685H22.4483V24.6991C22.4516 24.9833 22.5753 25.2524 22.7884 25.4398C23.0042 25.6231 23.2921 25.6968 23.5693 25.6402L33.8588 23.9387C34.3263 23.869 34.6739 23.4701 34.6796 22.9976V13.2683H46.0904C46.4192 13.2697 46.7339 13.401 46.9665 13.6336C47.1987 13.8659 47.3301 14.1806 47.3314 14.5093V25.6199C47.2916 25.5998 47.2513 25.5599 47.2115 25.5398L45.3296 24.7392C45.0136 24.6742 44.6915 24.6406 44.3688 24.639H39.0639C38.2739 24.5847 37.5135 24.9496 37.0617 25.5998C36.5955 26.3656 36.5503 27.3157 36.9417 28.1224C37.0212 28.3449 37.1217 28.5594 37.242 28.7628H30.1354C29.4008 28.7635 28.6963 29.054 28.1751 29.5715C27.6539 30.089 27.3584 30.7911 27.3527 31.5253C27.3537 31.8327 27.4077 32.1376 27.5126 32.4262H27.2525C26.2618 32.4262 25.3465 32.9547 24.8512 33.8127C24.3559 34.6706 24.3559 35.7273 24.8512 36.5852C25.3466 37.4432 26.2618 37.9717 27.2525 37.9717H27.5129C27.408 38.2603 27.3537 38.5652 27.3527 38.8726C27.3544 39.5841 27.6295 40.2678 28.1215 40.7819C28.6135 41.2963 29.2841 41.6016 29.9949 41.6351C29.8934 41.9247 29.8394 42.229 29.8351 42.536C29.8334 43.2743 30.126 43.9831 30.6481 44.5052C31.1703 45.0274 31.8791 45.32 32.6174 45.3186H44.229C44.601 45.3263 44.972 45.2791 45.33 45.1786L47.2118 44.2576C47.2517 44.2375 47.2919 44.1976 47.3318 44.1775L47.3321 49.5228ZM54.1187 40.6344C54.1234 40.695 54.0792 40.7483 54.0185 40.7544H50.4952C50.07 40.7534 49.646 40.8073 49.2341 40.9146C48.5417 41.0925 47.8939 41.4129 47.3322 41.8557C47.0919 42.0159 46.8717 42.1761 46.6716 42.3363C46.0154 42.9834 45.1488 43.3735 44.2295 43.4372H32.6178C32.1259 43.4372 31.727 43.0384 31.727 42.5464C31.727 42.0544 32.1258 41.6552 32.6178 41.6552H35.7209C36.2407 41.6552 36.662 41.2343 36.662 40.7145C36.662 40.1946 36.2407 39.7737 35.7209 39.7737H30.1358C29.6381 39.7737 29.2349 39.3702 29.2349 38.8729C29.2349 38.3752 29.6381 37.972 30.1358 37.972H35.7213C36.2354 37.972 36.652 37.5551 36.652 37.0409C36.652 36.5268 36.2351 36.1099 35.7209 36.1099H27.253C26.7647 36.0961 26.3753 35.6977 26.3722 35.209C26.3675 34.7177 26.7613 34.3149 27.253 34.3082H35.7209C36.2407 34.3082 36.662 33.8869 36.662 33.3674C36.662 32.8476 36.2407 32.4263 35.7209 32.4263H30.1358C29.6435 32.4263 29.2446 32.0275 29.2446 31.5355C29.2446 31.0435 29.6434 30.6447 30.1358 30.6447H44.009C44.5284 30.6447 44.9497 30.2234 44.9497 29.7039C44.9497 29.1841 44.5285 28.7628 44.009 28.7628H40.6056C40.1894 28.7628 39.7825 28.6368 39.4397 28.4009C39.0965 28.1649 38.8327 27.8305 38.6839 27.4417C38.5539 27.1954 38.5251 26.9081 38.6038 26.6407C38.7422 26.5402 38.9145 26.4969 39.0841 26.5207H44.3491C45.508 26.6206 46.5802 27.1746 47.3319 28.0624C47.6322 28.3426 47.9124 28.663 48.2127 28.9632C48.5528 29.3235 48.8732 29.664 49.2335 30.0042C50.1039 30.9751 51.3167 31.5707 52.6171 31.6658C52.6171 31.6708 52.6191 31.6762 52.6231 31.6799C52.6268 31.6836 52.6318 31.6856 52.6372 31.6856H54.0187C54.0458 31.6839 54.072 31.694 54.0911 31.7131C54.1105 31.7322 54.1202 31.7586 54.1185 31.7858L54.1187 40.6344Z" stroke="#6E3DF7" stroke-width="0.4"></path></svg> 