<?xml version="1.0" encoding="UTF-8"?> <svg xmlns="http://www.w3.org/2000/svg" width="64" height="64" viewBox="0 0 64 64" fill="none"><path d="M51.7663 22.6768H41.2931V12.2036C41.2931 11.895 41.1706 11.599 40.9524 11.3808C40.7342 11.1625 40.4381 11.04 40.1295 11.04H12.2027C11.5598 11.04 11.0391 11.5608 11.0391 12.2037V40.1305C11.0391 40.4391 11.1616 40.7352 11.3798 40.9534C11.598 41.1716 11.8941 41.2941 12.2026 41.2941H22.6758V51.7672C22.6758 52.0758 22.7983 52.3719 23.0165 52.5901C23.2347 52.8083 23.5308 52.9308 23.8394 52.9308H51.7662C52.0748 52.9308 52.3709 52.8083 52.5891 52.5901C52.8073 52.3719 52.9298 52.0758 52.9298 51.7672V23.8404C52.9298 23.5318 52.8073 23.2357 52.5891 23.0175C52.3709 22.7993 52.0748 22.6768 51.7663 22.6768ZM13.3662 13.3675H38.9662V38.9675H13.3662V13.3675ZM50.6024 50.6036H25.0024V41.2944H40.1292C40.4378 41.2944 40.7339 41.1719 40.9521 40.9536C41.1703 40.7354 41.2928 40.4394 41.2928 40.1308V25.0039H50.6021L50.6024 50.6036Z" fill="#6E3DF7"></path><path d="M23.8394 25.0047C24.3127 25.0065 24.7405 24.7226 24.9227 24.2858C25.1045 23.8486 25.0048 23.3451 24.6702 23.0101C24.3355 22.6754 23.832 22.5758 23.3948 22.7579C22.9577 22.9397 22.6738 23.3676 22.6759 23.8412C22.6781 24.1497 22.7988 24.4455 23.0131 24.6672C23.2363 24.8797 23.5312 25 23.8394 25.0047Z" fill="#6E3DF7"></path><path d="M25.003 35.4769V34.313C25.003 33.6705 24.4819 33.1494 23.8394 33.1494C23.1965 33.1494 22.6758 33.6705 22.6758 34.313V35.4769C22.6758 36.1194 23.1965 36.6405 23.8394 36.6405C24.4819 36.6405 25.003 36.1195 25.003 35.4769Z" fill="#6E3DF7"></path><path d="M23.8394 30.8221C24.148 30.8221 24.4441 30.6996 24.6623 30.4814C24.8805 30.2628 25.003 29.9671 25.003 29.6586V28.4947C25.003 27.8522 24.4819 27.3311 23.8394 27.3311C23.1965 27.3311 22.6758 27.8521 22.6758 28.4947V29.6586C22.6758 29.9671 22.7983 30.2628 23.0165 30.4814C23.2347 30.6996 23.5309 30.8221 23.8394 30.8221Z" fill="#6E3DF7"></path><path d="M28.4937 25.005H29.6576C30.3001 25.005 30.8212 24.4839 30.8212 23.8413C30.8212 23.1985 30.3001 22.6777 29.6576 22.6777H28.4937C27.8512 22.6777 27.3301 23.1984 27.3301 23.8413C27.3301 24.4838 27.8511 25.005 28.4937 25.005Z" fill="#6E3DF7"></path><path d="M34.3121 25.005H35.4759C36.1184 25.005 36.6395 24.4839 36.6395 23.8413C36.6395 23.1985 36.1185 22.6777 35.4759 22.6777H34.3121C33.6696 22.6777 33.1484 23.1984 33.1484 23.8413C33.1484 24.4838 33.6695 25.005 34.3121 25.005Z" fill="#6E3DF7"></path></svg> 