<?xml version="1.0" encoding="UTF-8"?> <svg xmlns="http://www.w3.org/2000/svg" width="64" height="64" viewBox="0 0 64 64" fill="none"><path d="M50.4073 18.6178C47.8029 18.6178 45.6849 20.7364 45.6849 23.3408C45.6849 24.7624 46.3163 26.0393 47.3131 26.9057C43.4264 31.1552 40.5717 35.3704 38.3143 40.2166C37.5194 37.6533 36.7576 35.0577 36.0154 32.5268C35.1247 29.4905 34.2071 26.3622 33.2329 23.2956C35.2665 22.7692 36.7728 20.9189 36.7728 18.723C36.7728 16.1187 34.6544 14 32.0504 14C29.4461 14 27.3274 16.1187 27.3274 18.723C27.3274 20.8467 28.7368 22.6474 30.6692 23.2394C29.7427 26.2329 28.8692 29.2857 28.0218 32.2486C27.2746 34.8625 26.5074 37.5437 25.7027 40.1883C23.4601 35.3468 20.6061 31.1158 16.703 26.8228C17.7655 25.956 18.4453 24.6371 18.4453 23.162C18.4453 20.5576 16.327 18.439 13.723 18.439C11.1187 18.439 9 20.5576 9 23.162C9 25.7663 11.1187 27.8847 13.723 27.8847C14.017 27.8847 14.3049 27.8576 14.584 27.8057C14.92 28.8164 15.2631 29.8079 15.5968 30.7729C17.0689 35.0295 18.4606 39.0544 18.9867 43.8193C18.9768 43.8748 18.9714 43.9317 18.9714 43.99V49.7732C18.9714 50.3151 19.4107 50.7547 19.953 50.7547H44.2318C44.7738 50.7547 45.2134 50.3154 45.2134 49.7732V43.99C45.2134 43.8549 45.186 43.7261 45.1369 43.609C45.6791 38.9361 47.0516 34.9678 48.502 30.775C48.8183 29.8608 49.1425 28.9233 49.4615 27.9681C49.767 28.0304 50.0834 28.0633 50.4072 28.0633C53.0115 28.0633 55.1302 25.9446 55.1302 23.3406C55.1302 20.7362 53.0115 18.6176 50.4072 18.6176L50.4073 18.6178ZM10.9636 23.1619C10.9636 21.64 12.2016 20.4021 13.7235 20.4021C15.245 20.4021 16.4829 21.64 16.4829 23.1619C16.4829 24.6834 15.245 25.9217 13.7235 25.9217C12.2016 25.9217 10.9636 24.6834 10.9636 23.1619ZM29.2907 18.7228C29.2907 17.2009 30.5287 15.9629 32.0505 15.9629C33.572 15.9629 34.81 17.2009 34.81 18.7228C34.81 20.2443 33.572 21.4826 32.0505 21.4826C30.5287 21.4826 29.2907 20.2443 29.2907 18.7228ZM29.9095 32.788C30.5704 30.478 31.2471 28.1128 31.9506 25.7686C32.7036 28.209 33.4267 30.6731 34.1326 33.079C35.0912 36.3466 36.0812 39.7222 37.138 43.0082L26.8836 43.0086C27.9533 39.6286 28.9478 36.1527 29.9096 32.788L29.9095 32.788ZM24.796 43.0086H20.8686C20.3219 38.6595 19.1117 34.9456 17.7911 31.1102C20.7772 34.8444 22.97 38.5923 24.796 43.0086ZM43.2514 48.7917H20.9356V44.9717L43.2514 44.9713V48.7917ZM43.2331 43.0086H39.2285C41.062 38.6185 43.3241 34.7955 46.3261 31.0642C44.999 34.9161 43.7817 38.6425 43.233 43.0086H43.2331ZM50.4084 26.1001C50.0754 26.1001 49.756 26.0408 49.4603 25.9324C49.4254 25.9043 49.3881 25.8786 49.3485 25.8552C49.251 25.7969 49.1463 25.7576 49.0396 25.7363C48.2091 25.2601 47.6485 24.3645 47.6485 23.3406C47.6485 21.8187 48.8865 20.5808 50.408 20.5808C51.9302 20.5808 53.1678 21.8187 53.1678 23.3406C53.1685 24.8621 51.9305 26.1001 50.4084 26.1001Z" fill="#6E3DF7" stroke="#6E3DF7" stroke-width="0.4"></path></svg> 