<?xml version="1.0" encoding="UTF-8"?> <svg xmlns="http://www.w3.org/2000/svg" width="64" height="64" viewBox="0 0 64 64" fill="none"><path d="M44.0834 48.536H43.1513C42.2841 48.5351 41.4525 48.1905 40.8396 47.5778C40.2263 46.9651 39.8813 46.1347 39.8805 45.268V30.1201C39.8813 29.2538 40.2263 28.4235 40.8396 27.8108C41.4529 27.1985 42.2841 26.8534 43.1513 26.8526H44.0834C44.9506 26.8534 45.7822 27.198 46.3951 27.8108C47.0084 28.4235 47.3534 29.2538 47.3542 30.1201V45.268C47.3538 46.1347 47.0089 46.9655 46.3955 47.5778C45.7822 48.1905 44.9506 48.5351 44.0834 48.536ZM43.1513 28.8138C42.4297 28.8147 41.8446 29.3992 41.8437 30.1201V45.268C41.8445 45.9893 42.4296 46.5738 43.1513 46.5743H44.0834C44.8055 46.5738 45.3901 45.9893 45.391 45.268V30.1201C45.3902 29.3992 44.8055 28.8147 44.0834 28.8138H43.1513Z" fill="#6E3DF7"></path><path d="M46.3723 46.7529C45.83 46.767 45.3794 46.3394 45.3648 45.7981C45.3507 45.2564 45.7787 44.8057 46.321 44.7916C48.7631 44.6518 50.9621 43.2691 52.1443 41.1299C53.3268 38.9908 53.3268 36.3946 52.1443 34.2554C50.9621 32.1163 48.7631 30.7335 46.321 30.5942C46.0603 30.58 45.8164 30.4637 45.6422 30.2701C45.4675 30.0759 45.3777 29.8211 45.3914 29.5611C45.42 29.0194 45.8831 28.6038 46.4254 28.6325C49.5442 28.8065 52.3549 30.5698 53.8666 33.3011C55.3778 36.0324 55.3778 39.3482 53.8666 42.0795C52.3549 44.8108 49.5442 46.5741 46.4254 46.7481L46.3723 46.7529Z" fill="#6E3DF7"></path><path d="M21.849 48.536H20.9168C20.0497 48.5351 19.2181 48.1905 18.6047 47.5778C17.9914 46.9655 17.6464 46.1347 17.646 45.268V30.1201C17.6468 29.2538 17.9918 28.4235 18.6051 27.8108C19.218 27.198 20.0497 26.8534 20.9168 26.8526H21.849C22.7161 26.8534 23.5472 27.1985 24.1606 27.8108C24.7739 28.4235 25.1189 29.2538 25.1197 30.1201V45.268C25.1189 46.1347 24.7739 46.965 24.1606 47.5778C23.5477 48.1905 22.7161 48.5351 21.849 48.536ZM20.9168 28.8138C20.1948 28.8147 19.6101 29.3992 19.6092 30.1201V45.268C19.6101 45.9893 20.1947 46.5738 20.9168 46.5743H21.849C22.5706 46.5738 23.1557 45.9893 23.1565 45.268V30.1201C23.1557 29.3992 22.5706 28.8147 21.849 28.8138H20.9168Z" fill="#6E3DF7"></path><path d="M18.6277 46.7529H18.5746C15.4558 46.5788 12.6451 44.8156 11.1334 42.0843C9.62218 39.353 9.62218 36.0371 11.1334 33.3058C12.6451 30.5745 15.4558 28.8113 18.5746 28.6372C19.1169 28.6086 19.58 29.0246 19.6086 29.5659C19.6373 30.1076 19.2213 30.5703 18.679 30.5989C16.2369 30.7387 14.0379 32.1215 12.8557 34.2606C11.6732 36.3998 11.6732 38.9956 12.8557 41.1347C14.0379 43.2738 16.2369 44.6566 18.679 44.7964C19.2213 44.8105 19.6493 45.2612 19.6352 45.8029C19.6206 46.3446 19.1699 46.7722 18.6277 46.7581L18.6277 46.7529Z" fill="#6E3DF7"></path><path d="M18.5444 30.6002C18.0021 30.6002 17.5626 30.161 17.5626 29.6193V26.2163C17.5626 22.2587 19.1363 18.4631 21.9376 15.6647C24.7388 12.8663 28.5381 11.2945 32.4997 11.2949C40.7356 11.2949 47.4359 17.9885 47.4359 26.2163V29.6193C47.4359 30.161 46.9963 30.6002 46.4541 30.6002C45.9122 30.6002 45.4727 30.161 45.4727 29.6193V26.2163C45.4727 19.0703 39.6528 13.2564 32.4999 13.2564C29.0593 13.2564 25.7593 14.6217 23.3261 17.052C20.8934 19.4827 19.5263 22.7793 19.5263 26.2166V29.6196C19.5263 29.8796 19.4228 30.1293 19.2387 30.3132C19.0547 30.497 18.805 30.6002 18.5444 30.6002Z" fill="#6E3DF7"></path><path d="M50.5194 32.0067C50.1783 32.0063 49.8616 31.8293 49.6836 31.5385C49.5051 31.2482 49.4901 30.886 49.6446 30.582C49.7281 30.4187 49.7709 30.2374 49.7704 30.0544V26.2166C49.7704 20.0519 46.4783 14.3557 41.1343 11.2734C35.7904 8.19105 29.2057 8.19105 23.8621 11.2734C18.5182 14.3553 15.226 20.0518 15.226 26.2166V30.0544C15.2256 30.2374 15.2688 30.4178 15.3519 30.5808C15.598 31.0635 15.4054 31.6544 14.9222 31.9003C14.4389 32.1461 13.8475 31.9537 13.6013 31.471C13.3783 31.0319 13.2623 30.5466 13.2619 30.0545V26.2167C13.2619 21.1201 15.2885 16.232 18.8961 12.6286C22.5033 9.02454 27.3961 7 32.4978 7C37.5991 7 42.492 9.02454 46.0995 12.6286C49.7071 16.2321 51.7336 21.1201 51.7336 26.2167V30.0545C51.7345 30.5458 51.6194 31.0306 51.3981 31.4698C51.2303 31.7999 50.8901 32.0076 50.5194 32.0067Z" fill="#6E3DF7"></path><path d="M43.7208 55.4176H39.4652C38.9229 55.4176 38.4834 54.9785 38.4834 54.4371C38.4834 53.8954 38.9229 53.4563 39.4652 53.4563H43.7208C44.7903 53.4555 45.8158 53.0304 46.5725 52.2749C47.3288 51.5194 47.7546 50.4954 47.7559 49.4265V45.2859C47.7559 44.7446 48.1955 44.3055 48.7373 44.3055C49.2796 44.3055 49.7191 44.7446 49.7191 45.2859V49.4265C49.717 51.0154 49.0844 52.538 47.96 53.6612C46.8352 54.7845 45.3107 55.4158 43.7208 55.4176Z" fill="#6E3DF7"></path><path d="M36.8805 57.9997H32.4726C31.2101 57.983 30.0502 57.3006 29.4236 56.2051C28.797 55.1097 28.797 53.765 29.4236 52.6695C30.0501 51.5741 31.2101 50.8917 32.4726 50.875H36.8805C37.8345 50.8626 38.7534 51.2324 39.4326 51.9016C40.1114 52.5711 40.4936 53.4844 40.4936 54.437C40.4936 55.3901 40.1114 56.3034 39.4326 56.973C38.7534 57.6421 37.8345 58.0121 36.8805 57.9997ZM32.4726 52.8368C31.9076 52.8475 31.3902 53.1553 31.1111 53.6457C30.8316 54.1366 30.8316 54.7382 31.1111 55.2286C31.3902 55.7195 31.9076 56.0269 32.4726 56.038H36.8805C37.3111 56.0465 37.7266 55.8815 38.0343 55.5805C38.3416 55.2795 38.5146 54.8673 38.5146 54.4372C38.5146 54.0075 38.3416 53.5953 38.0343 53.2944C37.7266 52.9933 37.311 52.8283 36.8805 52.8369L32.4726 52.8368Z" fill="#6E3DF7"></path><path d="M44.0834 48.536H43.1513C42.2841 48.5351 41.4525 48.1905 40.8396 47.5778C40.2263 46.9651 39.8813 46.1347 39.8805 45.268V30.1201C39.8813 29.2538 40.2263 28.4235 40.8396 27.8108C41.4529 27.1985 42.2841 26.8534 43.1513 26.8526H44.0834C44.9506 26.8534 45.7822 27.198 46.3951 27.8108C47.0084 28.4235 47.3534 29.2538 47.3542 30.1201V45.268C47.3538 46.1347 47.0089 46.9655 46.3955 47.5778C45.7822 48.1905 44.9506 48.5351 44.0834 48.536ZM43.1513 28.8138C42.4297 28.8147 41.8446 29.3992 41.8437 30.1201V45.268C41.8445 45.9893 42.4296 46.5738 43.1513 46.5743H44.0834C44.8055 46.5738 45.3901 45.9893 45.391 45.268V30.1201C45.3902 29.3992 44.8055 28.8147 44.0834 28.8138H43.1513Z" stroke="#6E3DF7" stroke-width="0.4"></path><path d="M46.3723 46.7529C45.83 46.767 45.3794 46.3394 45.3648 45.7981C45.3507 45.2564 45.7787 44.8057 46.321 44.7916C48.7631 44.6518 50.9621 43.2691 52.1443 41.1299C53.3268 38.9908 53.3268 36.3946 52.1443 34.2554C50.9621 32.1163 48.7631 30.7335 46.321 30.5942C46.0603 30.58 45.8164 30.4637 45.6422 30.2701C45.4675 30.0759 45.3777 29.8211 45.3914 29.5611C45.42 29.0194 45.8831 28.6038 46.4254 28.6325C49.5442 28.8065 52.3549 30.5698 53.8666 33.3011C55.3778 36.0324 55.3778 39.3482 53.8666 42.0795C52.3549 44.8108 49.5442 46.5741 46.4254 46.7481L46.3723 46.7529Z" stroke="#6E3DF7" stroke-width="0.4"></path><path d="M21.849 48.536H20.9168C20.0497 48.5351 19.2181 48.1905 18.6047 47.5778C17.9914 46.9655 17.6464 46.1347 17.646 45.268V30.1201C17.6468 29.2538 17.9918 28.4235 18.6051 27.8108C19.218 27.198 20.0497 26.8534 20.9168 26.8526H21.849C22.7161 26.8534 23.5472 27.1985 24.1606 27.8108C24.7739 28.4235 25.1189 29.2538 25.1197 30.1201V45.268C25.1189 46.1347 24.7739 46.965 24.1606 47.5778C23.5477 48.1905 22.7161 48.5351 21.849 48.536ZM20.9168 28.8138C20.1948 28.8147 19.6101 29.3992 19.6092 30.1201V45.268C19.6101 45.9893 20.1947 46.5738 20.9168 46.5743H21.849C22.5706 46.5738 23.1557 45.9893 23.1565 45.268V30.1201C23.1557 29.3992 22.5706 28.8147 21.849 28.8138H20.9168Z" stroke="#6E3DF7" stroke-width="0.4"></path><path d="M18.6277 46.7529H18.5746C15.4558 46.5788 12.6451 44.8156 11.1334 42.0843C9.62218 39.353 9.62218 36.0371 11.1334 33.3058C12.6451 30.5745 15.4558 28.8113 18.5746 28.6372C19.1169 28.6086 19.58 29.0246 19.6086 29.5659C19.6373 30.1076 19.2213 30.5703 18.679 30.5989C16.2369 30.7387 14.0379 32.1215 12.8557 34.2606C11.6732 36.3998 11.6732 38.9956 12.8557 41.1347C14.0379 43.2738 16.2369 44.6566 18.679 44.7964C19.2213 44.8105 19.6493 45.2612 19.6352 45.8029C19.6206 46.3446 19.1699 46.7722 18.6277 46.7581L18.6277 46.7529Z" stroke="#6E3DF7" stroke-width="0.4"></path><path d="M18.5444 30.6002C18.0021 30.6002 17.5626 30.161 17.5626 29.6193V26.2163C17.5626 22.2587 19.1363 18.4631 21.9376 15.6647C24.7388 12.8663 28.5381 11.2945 32.4997 11.2949C40.7356 11.2949 47.4359 17.9885 47.4359 26.2163V29.6193C47.4359 30.161 46.9963 30.6002 46.4541 30.6002C45.9122 30.6002 45.4727 30.161 45.4727 29.6193V26.2163C45.4727 19.0703 39.6528 13.2564 32.4999 13.2564C29.0593 13.2564 25.7593 14.6217 23.3261 17.052C20.8934 19.4827 19.5263 22.7793 19.5263 26.2166V29.6196C19.5263 29.8796 19.4228 30.1293 19.2387 30.3132C19.0547 30.497 18.805 30.6002 18.5444 30.6002Z" stroke="#6E3DF7" stroke-width="0.4"></path><path d="M50.5194 32.0067C50.1783 32.0063 49.8616 31.8293 49.6836 31.5385C49.5051 31.2482 49.4901 30.886 49.6446 30.582C49.7281 30.4187 49.7709 30.2374 49.7704 30.0544V26.2166C49.7704 20.0519 46.4783 14.3557 41.1343 11.2734C35.7904 8.19105 29.2057 8.19105 23.8621 11.2734C18.5182 14.3553 15.226 20.0518 15.226 26.2166V30.0544C15.2256 30.2374 15.2688 30.4178 15.3519 30.5808C15.598 31.0635 15.4054 31.6544 14.9222 31.9003C14.4389 32.1461 13.8475 31.9537 13.6013 31.471C13.3783 31.0319 13.2623 30.5466 13.2619 30.0545V26.2167C13.2619 21.1201 15.2885 16.232 18.8961 12.6286C22.5033 9.02454 27.3961 7 32.4978 7C37.5991 7 42.492 9.02454 46.0995 12.6286C49.7071 16.2321 51.7336 21.1201 51.7336 26.2167V30.0545C51.7345 30.5458 51.6194 31.0306 51.3981 31.4698C51.2303 31.7999 50.8901 32.0076 50.5194 32.0067Z" stroke="#6E3DF7" stroke-width="0.4"></path><path d="M43.7208 55.4176H39.4652C38.9229 55.4176 38.4834 54.9785 38.4834 54.4371C38.4834 53.8954 38.9229 53.4563 39.4652 53.4563H43.7208C44.7903 53.4555 45.8158 53.0304 46.5725 52.2749C47.3288 51.5194 47.7546 50.4954 47.7559 49.4265V45.2859C47.7559 44.7446 48.1955 44.3055 48.7373 44.3055C49.2796 44.3055 49.7191 44.7446 49.7191 45.2859V49.4265C49.717 51.0154 49.0844 52.538 47.96 53.6612C46.8352 54.7845 45.3107 55.4158 43.7208 55.4176Z" stroke="#6E3DF7" stroke-width="0.4"></path><path d="M36.8805 57.9997H32.4726C31.2101 57.983 30.0502 57.3006 29.4236 56.2051C28.797 55.1097 28.797 53.765 29.4236 52.6695C30.0501 51.5741 31.2101 50.8917 32.4726 50.875H36.8805C37.8345 50.8626 38.7534 51.2324 39.4326 51.9016C40.1114 52.5711 40.4936 53.4844 40.4936 54.437C40.4936 55.3901 40.1114 56.3034 39.4326 56.973C38.7534 57.6421 37.8345 58.0121 36.8805 57.9997ZM32.4726 52.8368C31.9076 52.8475 31.3902 53.1553 31.1111 53.6457C30.8316 54.1366 30.8316 54.7382 31.1111 55.2286C31.3902 55.7195 31.9076 56.0269 32.4726 56.038H36.8805C37.3111 56.0465 37.7266 55.8815 38.0343 55.5805C38.3416 55.2795 38.5146 54.8673 38.5146 54.4372C38.5146 54.0075 38.3416 53.5953 38.0343 53.2944C37.7266 52.9933 37.311 52.8283 36.8805 52.8369L32.4726 52.8368Z" stroke="#6E3DF7" stroke-width="0.4"></path></svg> 