<?xml version="1.0" encoding="UTF-8"?> <svg xmlns="http://www.w3.org/2000/svg" width="64" height="64" viewBox="0 0 64 64" fill="none"><path d="M54.2488 14.7432H16.7229C15.5811 14.7432 14.6522 15.6721 14.6522 16.8138V23.3674L11.5062 23.3671C9.39653 23.3671 7.67969 25.0835 7.67969 27.1936V45.4226C7.67969 47.5322 9.39608 49.2491 11.5062 49.2491H45.5212C47.6312 49.2491 49.3477 47.5327 49.3477 45.4226V40.6247H54.2491C55.3909 40.6247 56.3198 39.6958 56.3198 38.554L56.3201 16.8141C56.3201 15.6724 55.3906 14.7432 54.2488 14.7432ZM14.652 35.2725H9.74917V31.2472H14.6517L14.652 35.2725ZM11.506 25.4367H14.652V29.1774H9.74917V27.1931C9.74917 26.2249 10.5374 25.4367 11.506 25.4367ZM47.2774 45.422C47.2774 46.3906 46.4892 47.1785 45.5206 47.1785H11.5055C10.5369 47.1785 9.74908 46.3902 9.74908 45.422V37.3424H14.6516V38.5538C14.6516 39.6956 15.5805 40.6245 16.7222 40.6245H47.2768L47.2774 45.422ZM16.722 38.5535L16.723 16.8126L54.2499 16.8134L54.2503 38.5542L16.722 38.5535Z" fill="#6E3DF7"></path><path d="M27.5828 23.5769H21.4392C20.8678 23.5769 20.4043 24.0401 20.4043 24.6119V30.7554C20.4043 31.3268 20.8675 31.7904 21.4392 31.7904H27.5828C28.1542 31.7904 28.6178 31.3272 28.6178 30.7554V24.6119C28.6178 24.0401 28.1542 23.5769 27.5828 23.5769ZM26.5478 29.7201H22.4738V25.6465H26.5478V29.7201Z" fill="#6E3DF7"></path><path d="M54.2488 14.7432H16.7229C15.5811 14.7432 14.6522 15.6721 14.6522 16.8138V23.3674L11.5062 23.3671C9.39653 23.3671 7.67969 25.0835 7.67969 27.1936V45.4226C7.67969 47.5322 9.39608 49.2491 11.5062 49.2491H45.5212C47.6312 49.2491 49.3477 47.5327 49.3477 45.4226V40.6247H54.2491C55.3909 40.6247 56.3198 39.6958 56.3198 38.554L56.3201 16.8141C56.3201 15.6724 55.3906 14.7432 54.2488 14.7432ZM14.652 35.2725H9.74917V31.2472H14.6517L14.652 35.2725ZM11.506 25.4367H14.652V29.1774H9.74917V27.1931C9.74917 26.2249 10.5374 25.4367 11.506 25.4367ZM47.2774 45.422C47.2774 46.3906 46.4892 47.1785 45.5206 47.1785H11.5055C10.5369 47.1785 9.74908 46.3902 9.74908 45.422V37.3424H14.6516V38.5538C14.6516 39.6956 15.5805 40.6245 16.7222 40.6245H47.2768L47.2774 45.422ZM16.722 38.5535L16.723 16.8126L54.2499 16.8134L54.2503 38.5542L16.722 38.5535Z" stroke="#6E3DF7" stroke-width="0.4"></path><path d="M27.5828 23.5769H21.4392C20.8678 23.5769 20.4043 24.0401 20.4043 24.6119V30.7554C20.4043 31.3268 20.8675 31.7904 21.4392 31.7904H27.5828C28.1542 31.7904 28.6178 31.3272 28.6178 30.7554V24.6119C28.6178 24.0401 28.1542 23.5769 27.5828 23.5769ZM26.5478 29.7201H22.4738V25.6465H26.5478V29.7201Z" stroke="#6E3DF7" stroke-width="0.4"></path></svg> 