<?xml version="1.0" encoding="UTF-8"?> <svg xmlns="http://www.w3.org/2000/svg" width="64" height="64" viewBox="0 0 64 64" fill="none"><path d="M56.556 31.9813C56.556 38.4991 53.9668 44.7502 49.3579 49.3591C44.7489 53.968 38.498 56.557 31.98 56.557C25.4621 56.557 19.2111 53.9681 14.6022 49.3591C9.99328 44.7502 7.4043 38.4992 7.4043 31.9813C7.4043 25.4633 9.99319 19.2124 14.6022 14.6034C19.2111 9.99453 25.4621 7.40527 31.98 7.40527C32.4043 7.40527 32.7479 7.7492 32.7479 8.17348C32.7479 8.59741 32.4043 8.94134 31.98 8.94134C26.7639 8.94027 21.7025 10.7088 17.6212 13.9574C13.5408 17.2063 10.6829 21.7434 9.51547 26.8269C8.34766 31.9105 8.93904 37.2397 11.193 41.9437C13.4465 46.6476 17.2294 50.4476 21.9231 52.7231C26.6166 54.9981 31.9436 55.6138 37.0316 54.4692C42.1206 53.3245 46.671 50.4874 49.9377 46.4217C53.2052 42.3559 54.9966 37.302 55.0191 32.0866C55.0416 26.8705 53.2941 21.8009 50.0623 17.7076L49.8602 19.7316C49.8209 20.1241 49.4909 20.423 49.0966 20.4233C49.0716 20.4233 49.0455 20.4233 49.0195 20.4194C48.5973 20.3769 48.2895 20.0005 48.3316 19.5787L48.7155 15.7387C48.7577 15.3169 49.1341 15.0091 49.5559 15.0508L53.3927 15.4344C53.8148 15.4769 54.1227 15.8533 54.0802 16.2755C54.0377 16.6973 53.6613 17.0051 53.2391 16.9626L51.2755 16.7666C54.7005 21.098 56.5621 26.459 56.556 31.9813ZM31.98 13.5602C36.8654 13.5602 41.5508 15.501 45.0049 18.9556C48.4591 22.4103 50.4003 27.0956 50.4003 31.9805C50.4003 36.8655 48.4596 41.5513 45.0049 45.0055C41.5503 48.4596 36.865 50.4008 31.98 50.4008C27.0951 50.4008 22.4093 48.4601 18.9551 45.0055C15.5009 41.5508 13.5597 36.8655 13.5597 31.9805C13.5651 27.0966 15.508 22.4144 18.9611 18.9611C22.4144 15.5079 27.0959 13.5655 31.98 13.5602ZM41.41 21.4674L43.3557 19.5166C40.4453 16.8491 36.6892 15.2905 32.7454 15.1134V17.8784C32.7454 18.3027 32.4014 18.6463 31.9775 18.6463C31.5532 18.6463 31.2093 18.3027 31.2093 17.8784V15.1134C27.2657 15.2906 23.5097 16.8491 20.599 19.5166L22.5497 21.467C22.8497 21.767 22.8497 22.2534 22.5497 22.5534C22.2497 22.8534 21.7633 22.8534 21.4633 22.5534L19.5129 20.6027C16.8454 23.5131 15.2868 27.2691 15.1097 31.213H17.8747C18.2987 31.213 18.6426 31.5566 18.6426 31.9809C18.6426 32.4051 18.2987 32.7487 17.8747 32.7487H15.1097C15.2869 36.6927 16.8454 40.4487 19.5129 43.359L21.4633 41.4133C21.6065 41.2654 21.8029 41.1808 22.009 41.1794C22.2151 41.1776 22.4133 41.2587 22.5587 41.4044C22.7044 41.5501 22.7851 41.7483 22.7833 41.9544C22.7815 42.1601 22.6969 42.3569 22.5487 42.4997L20.599 44.4454C23.509 47.1129 27.2647 48.6719 31.2084 48.8486V46.084C31.2084 45.6597 31.5523 45.3158 31.9763 45.3158C32.4005 45.3158 32.7445 45.6597 32.7445 46.084V48.8486C36.6884 48.6715 40.4441 47.1129 43.3548 44.4454L41.4091 42.4997C41.1091 42.1997 41.1094 41.7133 41.4094 41.4133C41.7094 41.1133 42.1959 41.1133 42.4959 41.4133L44.4416 43.359C47.1091 40.4486 48.6677 36.6925 48.8444 32.7487H46.0798C45.6555 32.7487 45.3119 32.4051 45.3119 31.9808C45.3119 31.5565 45.6555 31.213 46.0798 31.213H48.8444C48.6676 27.269 47.1091 23.5133 44.4412 20.6036L42.4955 22.5532C42.1941 22.8443 41.7155 22.8404 41.4191 22.5443C41.1227 22.2482 41.1189 21.7691 41.41 21.4674Z" fill="#6E3DF7" stroke="#6E3DF7" stroke-width="0.8"></path><path d="M22.3891 33.63C22.6158 33.45 22.7191 33.3667 22.6991 33.38C23.3525 32.84 23.8658 32.3967 24.2391 32.05C24.6191 31.7034 24.9391 31.34 25.1991 30.96C25.4591 30.58 25.5891 30.21 25.5891 29.85C25.5891 29.5767 25.5258 29.3634 25.3991 29.21C25.2725 29.0567 25.0825 28.98 24.8291 28.98C24.5758 28.98 24.3758 29.0767 24.2291 29.27C24.0891 29.4567 24.0191 29.7234 24.0191 30.07H22.3691C22.3825 29.5034 22.5025 29.03 22.7291 28.65C22.9625 28.27 23.2658 27.99 23.6391 27.81C24.0191 27.63 24.4391 27.54 24.8991 27.54C25.6925 27.54 26.2891 27.7434 26.6891 28.15C27.0958 28.5567 27.2991 29.0867 27.2991 29.74C27.2991 30.4534 27.0558 31.1167 26.5691 31.73C26.0825 32.3367 25.4625 32.93 24.7091 33.51H27.4091V34.9H22.3891V33.63Z" fill="#6E3DF7"></path><path d="M28.102 33.7V32.32L31.262 27.8H33.172V32.22H33.992V33.7H33.172V35H31.462V33.7H28.102ZM31.582 29.68L29.902 32.22H31.582V29.68Z" fill="#6E3DF7"></path><path d="M38.3296 29.36C38.9696 29.36 39.4829 29.5734 39.8696 30C40.2563 30.42 40.4496 31 40.4496 31.74V35H38.7496V31.97C38.7496 31.5967 38.6529 31.3067 38.4596 31.1C38.2663 30.8934 38.0063 30.79 37.6796 30.79C37.3529 30.79 37.0929 30.8934 36.8996 31.1C36.7063 31.3067 36.6096 31.5967 36.6096 31.97V35H34.8996V27.6H36.6096V30.17C36.7829 29.9234 37.0196 29.7267 37.3196 29.58C37.6196 29.4334 37.9563 29.36 38.3296 29.36Z" fill="#6E3DF7"></path></svg> 