<?xml version="1.0" encoding="UTF-8"?> <svg xmlns="http://www.w3.org/2000/svg" width="99" height="19" viewBox="0 0 99 19" fill="none"><path d="M36.5046 6.60447C38.0052 5.71375 39.3064 5.24381 40.7656 5.27921C43.1192 5.33623 44.2881 6.6084 43.984 8.905C43.6997 11.0541 43.3482 13.1934 43.0145 15.3366C42.8151 16.6108 42.8724 16.7288 44.1183 16.8802C44.4224 16.9175 44.529 17.0099 44.5132 17.2793C44.4816 17.7905 44.5448 18.4099 43.9327 18.6026C42.7875 18.9664 41.6047 19.0647 40.4812 18.5141C39.5335 18.0501 39.3933 17.1613 39.5019 16.2647C39.7052 14.5954 39.9975 12.9378 40.2423 11.2724C40.3687 10.4092 40.578 9.5578 40.5701 8.67494C40.5642 7.7567 40.0725 7.31822 39.1879 7.2376C37.6103 7.09603 36.3802 8.00051 36.1314 9.5224C35.6812 12.2673 35.233 15.0142 34.8302 17.7669C34.7354 18.4178 34.5261 18.7894 33.8113 18.7363C33.683 18.7265 33.5527 18.7756 33.4224 18.7874C31.4459 18.9605 31.2385 18.7363 31.5406 16.8762C32.0165 13.9386 32.441 10.9912 32.9564 8.0595C33.0729 7.39294 32.8912 7.22777 32.287 7.11176C31.8921 7.03508 31.2149 7.20418 31.282 6.37835C31.3432 5.61937 31.8566 5.53089 32.4371 5.4837C33.6159 5.38932 34.7927 5.36572 35.9774 5.41488C36.6862 5.44437 36.937 5.67639 36.5046 6.60447Z" fill="#808080"></path><path d="M66.9876 0.164469C68.7923 0.164469 70.597 0.184132 72.4017 0.152672C72.9862 0.14284 73.1757 0.353231 73.073 0.888054C72.9072 1.74534 72.7413 2.60264 72.5715 3.45796C72.5064 3.78633 72.3267 3.98688 71.9575 3.922C71.5625 3.85318 71.7067 3.53464 71.6751 3.30066C71.5902 2.67145 72.0068 1.81416 71.5132 1.46417C71.0748 1.1535 70.2554 1.35209 69.6019 1.34816C68.1585 1.34029 66.7132 1.36782 65.2698 1.33636C64.7169 1.32456 64.4523 1.44647 64.3714 2.05208C64.1088 4.00655 63.8067 5.95905 63.4572 7.89975C63.3407 8.54272 63.6033 8.58401 64.1127 8.57811C65.9174 8.56041 67.7221 8.56434 69.5268 8.57811C69.8447 8.58007 70.3068 8.40901 70.2989 9.01462C70.2929 9.52191 70.0896 9.76966 69.5249 9.7618C67.655 9.7382 65.7832 9.77556 63.9133 9.7382C63.3348 9.72641 63.1037 9.89944 63.0208 10.4638C62.7148 12.5755 62.3791 14.6853 62.0257 16.7912C61.9269 17.385 62.0118 17.7448 62.7227 17.6898C62.8846 17.678 63.0564 17.6878 63.2123 17.7271C63.4967 17.8018 63.9469 17.6288 63.9804 18.1164C64.014 18.6198 63.6171 18.6434 63.24 18.6729C61.6347 18.7948 60.0294 18.8027 58.4242 18.6729C58.1458 18.6493 57.7824 18.7122 57.8101 18.2541C57.8318 17.8844 58.1043 17.8195 58.4163 17.7468C58.9711 17.617 59.7155 17.9572 60.0551 17.3889C60.3197 16.9446 60.296 16.3291 60.3829 15.7864C61.1115 11.2522 61.8223 6.71409 62.5766 2.18186C62.7029 1.42484 62.5213 1.08861 61.7216 1.15743C61.5597 1.1712 61.3899 1.15743 61.2319 1.11811C60.9713 1.05519 60.5823 1.12794 60.6336 0.665866C60.6751 0.280479 60.9594 0.235255 61.2773 0.231322C62.9833 0.21166 64.6893 0.190031 66.3953 0.168402C66.5927 0.166436 66.7882 0.168402 66.9856 0.168402L66.9876 0.164469Z" fill="#808080"></path><path d="M16.9197 4.67912C17.2099 1.93225 16.2246 0.575525 13.4524 0.207834C10.1175 -0.236541 6.77661 0.16261 3.43772 0.256991C3.03886 0.268788 2.87103 0.490976 2.76441 0.835072C2.52352 1.60388 2.93224 1.80837 3.59963 1.84377C4.3144 1.88309 4.72905 1.99517 4.55331 2.97437C3.85631 6.88723 3.29555 10.8237 2.6795 14.7503C2.47415 16.0572 1.7449 16.8529 0.491746 17.1374C0.434485 17.1511 0.389071 17.2101 0.337734 17.2475C0.306142 17.6565 0.513465 18.0969 0.171875 18.4646C0.321938 18.5118 0.472001 18.5963 0.626013 18.6022C3.41007 18.7241 6.19216 18.8972 8.98017 18.8087C10.2577 18.7674 11.5253 18.5963 12.7199 18.0851C14.9708 17.1216 15.652 15.234 15.9107 13.0239C16.12 11.2307 15.658 9.87005 13.5709 9.17596C15.962 8.36586 16.7064 6.71813 16.9216 4.67715L16.9197 4.67912ZM12.1907 13.8793C11.9498 15.7787 11.0159 16.6458 9.10061 16.7087C8.2496 16.7362 7.39661 16.6989 6.5456 16.7205C6.10133 16.7323 5.97299 16.5671 6.04012 16.1444C6.32643 14.3256 6.60483 12.5068 6.86349 10.6841C6.92075 10.2869 7.15572 10.2358 7.47559 10.2377C7.96724 10.2417 8.4589 10.2377 8.94858 10.2377C12.2045 10.2436 12.5915 10.6802 12.1887 13.8753L12.1907 13.8793ZM13.3675 4.23277C13.328 4.84232 13.2372 5.45382 13.1049 6.05157C12.8265 7.29228 12.1078 7.94901 10.8224 8.11418C10.2754 8.183 9.71271 8.12598 9.15787 8.12598C7.9192 8.16006 7.39924 7.55773 7.59801 6.31898C7.77967 5.17265 7.95737 4.02435 8.10743 2.87212C8.17457 2.35303 8.33055 2.06989 8.95647 2.11904C9.83513 2.18983 10.7256 2.09938 11.6043 2.1741C12.9154 2.28421 13.4564 2.93307 13.3695 4.23474L13.3675 4.23277Z" fill="#808080"></path><path d="M0.33588 17.2471C0.0594483 17.6246 -0.169595 18.006 0.170021 18.4642C0.136454 18.0473 0.207537 17.6423 0.33588 17.2471Z" fill="#808080"></path><path d="M56.0531 5.64026C54.5189 5.17425 52.9511 5.18802 51.3754 5.42593C48.7908 5.81722 47.3652 7.12675 46.9111 9.6357C46.5991 11.3542 46.3365 13.0826 46.1134 14.8148C45.8429 16.9148 46.8222 18.2243 48.9507 18.6471C51.0832 19.0718 53.192 18.9027 55.2712 18.2932C56.598 17.9038 56.8409 17.4968 56.602 16.0379C56.3176 16.1303 56.0432 16.2227 55.7648 16.3092C54.3767 16.7398 52.961 16.9876 51.5018 16.8912C49.9498 16.789 49.4049 16.146 49.5569 14.6261C49.5767 14.4334 49.6201 14.2387 49.6181 14.046C49.6083 13.2635 49.9755 13.0393 50.7653 13.0472C52.7971 13.0649 54.8348 13.1868 56.8606 12.8997C57.2476 12.8446 57.5517 12.7778 57.6031 12.3118C57.7511 10.9964 58.1401 9.71042 58.1085 8.3714C58.073 6.94192 57.4372 6.05711 56.0531 5.63829V5.64026ZM54.7894 9.68486C54.5663 11.1025 54.5761 11.1025 53.1723 11.1025C52.8781 11.1025 52.5838 11.1025 52.2896 11.1025C52.2245 11.1025 52.1574 11.1143 52.0942 11.1025C51.4603 10.9728 50.6232 11.4742 50.2144 10.8371C49.7899 10.1764 50.7258 7.95455 51.4702 7.57506C52.3903 7.10709 53.3855 7.00878 54.276 7.57113C55.0559 8.06466 54.9118 8.90032 54.7894 9.68289V9.68486Z" fill="#808080"></path><path d="M27.4993 5.58896C26.0224 5.17997 24.5198 5.19374 23.0133 5.42576C20.32 5.83867 18.8984 7.25045 18.4916 9.9167C18.2527 11.4838 18.0099 13.049 17.7729 14.6161C17.4313 16.8655 18.3988 18.2281 20.6735 18.6646C22.7763 19.0657 24.8515 18.8947 26.8971 18.2989C28.2319 17.9096 28.4629 17.5301 28.2398 16.0475C26.8004 16.4997 25.359 16.9127 23.8307 16.9087C21.4929 16.9048 20.9637 16.3031 21.2362 14.0557C21.327 13.3026 21.5857 13.0391 22.3893 13.049C24.4211 13.0706 26.4568 13.1886 28.4827 12.9035C28.8697 12.8484 29.1698 12.7855 29.227 12.3175C29.3811 11.0355 29.7542 9.78103 29.7384 8.4774C29.7187 6.89455 29.0651 6.0235 27.4993 5.59092V5.58896ZM26.4272 9.64929C26.1942 11.1024 26.2021 11.1024 24.7429 11.1024C24.4823 11.1024 24.2197 11.1024 23.959 11.1024C23.8939 11.1024 23.8268 11.1102 23.7636 11.1024C23.1179 11.0021 22.3321 11.415 21.8463 10.8723C21.4672 10.4496 22.3439 8.12347 22.9066 7.69482C23.5878 7.17573 25.0904 7.04399 25.8052 7.49033C26.6483 8.01532 26.5615 8.82739 26.4292 9.65125L26.4272 9.64929Z" fill="#808080"></path><path d="M98.9863 6.34249C98.8402 5.45177 98.1116 5.30234 97.3672 5.22565C96.2694 5.11161 95.2111 5.2925 94.1744 5.6425C93.9059 5.73295 93.667 5.91384 93.3333 5.79193C91.0804 4.97594 88.9242 5.20599 86.8036 6.47816C87.1096 4.52959 87.392 2.64591 87.7158 0.770099C87.7869 0.363082 87.7415 0.170389 87.2952 0.123198C86.3396 0.0209525 85.3958 0.14876 84.448 0.215613C84.1696 0.235275 84.0491 0.427969 84.0412 0.677684C84.0334 0.9274 84.2269 0.982455 84.4342 1.01195C84.6612 1.04341 84.8863 1.13189 85.1114 1.12403C85.8084 1.10436 85.8835 1.4111 85.7729 2.02654C85.376 4.22286 85.0423 6.43097 84.6889 8.63319C84.4914 9.868 84.3039 11.1048 84.1123 12.3416C84.1874 12.3671 84.2624 12.3927 84.3374 12.4182C84.8074 11.1205 85.7946 10.1393 86.4166 8.94582C87.4019 7.05428 89.5501 6.09867 91.7794 6.7554C90.3241 7.63039 88.9637 8.52111 87.8718 9.73036C86.306 11.4666 85.2102 13.4191 85.2121 15.8199C85.2121 16.9465 85.7295 17.8215 86.7345 18.3623C89.7061 19.9589 93.1141 18.4311 93.74 15.1926C94.1152 13.2559 94.4094 11.3034 94.6957 9.35087C94.7786 8.78065 94.676 8.18684 94.7253 7.61073C94.7609 7.19585 94.0579 6.82226 94.6049 6.4349C94.9642 6.17929 95.4302 6.02985 95.8705 5.93547C96.378 5.82733 96.9131 5.77227 97.4284 5.8057C98.4433 5.87059 98.698 6.39361 98.155 7.22534C97.9477 7.54388 97.691 7.83095 97.3317 8.29302C98.3782 7.96662 99.1048 7.06411 98.9863 6.34249ZM93.0253 8.48178C92.7844 10.9553 92.4645 13.4309 91.8149 15.8376C91.4595 17.153 90.5354 17.6701 89.0387 17.6741C87.1669 17.68 86.3455 16.8286 86.6279 15.0058C86.9201 13.1222 87.6092 11.3919 89.0684 10.043C89.9569 9.2211 90.9283 8.50931 91.963 7.87814C92.8535 7.33349 93.126 7.4318 93.0253 8.48178Z" fill="#808080"></path><path d="M81.733 17.6757C80.7695 17.6442 80.5207 17.3866 80.6727 16.4055C81.1841 13.0844 81.7192 9.76932 82.2504 6.45224C82.4103 5.45141 82.2859 5.36489 81.271 5.39832C80.4437 5.42585 80.6569 6.06881 80.4674 6.52695C79.0971 5.28821 77.4563 5.21742 75.7641 5.41012C73.5665 5.65983 72.2732 6.75701 71.8684 8.8845C71.4518 11.073 71.1062 13.2771 70.8377 15.4892C70.5731 17.6619 71.6314 18.7768 73.8587 18.82C75.6792 18.8554 77.3437 18.3442 78.8542 17.3296C79.3004 18.704 80.5187 19.231 81.8456 18.6667C82.203 18.5153 82.3451 18.2596 82.3274 17.9097C82.3037 17.4476 81.9542 17.6835 81.737 17.6776L81.733 17.6757ZM80.1041 8.86287C79.7803 11.1319 79.409 13.3931 79.0675 15.6602C79.0023 16.0869 78.7377 16.3425 78.406 16.5706C77.3259 17.3178 76.1156 17.6501 75.2349 17.6717C73.0215 17.6757 72.3423 16.9442 72.5911 15.206C72.8734 13.224 73.1656 11.244 73.5171 9.27382C73.9752 6.69802 77.1048 5.48877 79.3261 6.99492C79.9955 7.44913 80.2127 8.12159 80.106 8.86287H80.1041Z" fill="#808080"></path></svg> 